REM MD5 9b2b41de682345783b9526d97b164bcf
FILE "Euro Demo 50 (France).bin" BINARY
  TRACK 01 MODE2/2352
    INDEX 01 00:00:00
  TRACK 02 AUDIO
    INDEX 00 30:49:60
    INDEX 01 30:51:60
  TRACK 03 AUDIO
    INDEX 00 31:53:23
    INDEX 01 31:55:23
  TRACK 04 AUDIO
    INDEX 00 32:56:72
    INDEX 01 32:58:72
  TRACK 05 AUDIO
    INDEX 00 33:21:64
    INDEX 01 33:23:64
REM LEADOUT 36:25:21
